<mxfile host="app.diagrams.net" modified="2022-04-08T07:37:53.940Z" agent="5.0 (Windows NT 10.0; Win64; x64) AppleWebKit/537.36 (KHTML, like Gecko) Chrome/100.0.4896.60 Safari/537.36 Edg/100.0.1185.29" etag="qXfZB7XPSQH6_7xNtLiB" version="17.4.0" type="github">
  <diagram id="v-0yNBKLQEYkASYs1LeN" name="Page-1">
    <mxGraphModel dx="990" dy="547" grid="1" gridSize="10" guides="1" tooltips="1" connect="1" arrows="1" fold="1" page="1" pageScale="1" pageWidth="827" pageHeight="1169" math="0" shadow="0">
      <root>
        <mxCell id="0" />
        <mxCell id="1" parent="0" />
        <mxCell id="YZK5T-PvoIzCCBNRR7O4-7" style="edgeStyle=none;rounded=0;orthogonalLoop=1;jettySize=auto;html=1;exitX=0.5;exitY=0;exitDx=0;exitDy=0;entryX=0.5;entryY=1;entryDx=0;entryDy=0;endArrow=none;endFill=0;" edge="1" parent="1" source="YZK5T-PvoIzCCBNRR7O4-2" target="YZK5T-PvoIzCCBNRR7O4-5">
          <mxGeometry relative="1" as="geometry" />
        </mxCell>
        <mxCell id="YZK5T-PvoIzCCBNRR7O4-31" style="edgeStyle=none;rounded=0;orthogonalLoop=1;jettySize=auto;html=1;exitX=1;exitY=0.5;exitDx=0;exitDy=0;entryX=0;entryY=0.5;entryDx=0;entryDy=0;endArrow=none;endFill=0;" edge="1" parent="1" source="YZK5T-PvoIzCCBNRR7O4-2" target="YZK5T-PvoIzCCBNRR7O4-30">
          <mxGeometry relative="1" as="geometry" />
        </mxCell>
        <mxCell id="YZK5T-PvoIzCCBNRR7O4-2" value="发布" style="rhombus;whiteSpace=wrap;html=1;" vertex="1" parent="1">
          <mxGeometry x="110" y="670" width="80" height="80" as="geometry" />
        </mxCell>
        <mxCell id="YZK5T-PvoIzCCBNRR7O4-4" style="rounded=0;orthogonalLoop=1;jettySize=auto;html=1;exitX=0;exitY=0.25;exitDx=0;exitDy=0;entryX=1;entryY=1;entryDx=0;entryDy=0;endArrow=none;endFill=0;" edge="1" parent="1" source="YZK5T-PvoIzCCBNRR7O4-3" target="YZK5T-PvoIzCCBNRR7O4-2">
          <mxGeometry relative="1" as="geometry" />
        </mxCell>
        <mxCell id="YZK5T-PvoIzCCBNRR7O4-9" style="edgeStyle=none;rounded=0;orthogonalLoop=1;jettySize=auto;html=1;exitX=1;exitY=0.5;exitDx=0;exitDy=0;endArrow=none;endFill=0;" edge="1" parent="1" source="YZK5T-PvoIzCCBNRR7O4-3" target="YZK5T-PvoIzCCBNRR7O4-8">
          <mxGeometry relative="1" as="geometry" />
        </mxCell>
        <mxCell id="YZK5T-PvoIzCCBNRR7O4-3" value="用户" style="rounded=0;whiteSpace=wrap;html=1;" vertex="1" parent="1">
          <mxGeometry x="340" y="850" width="120" height="60" as="geometry" />
        </mxCell>
        <mxCell id="YZK5T-PvoIzCCBNRR7O4-17" value="" style="edgeStyle=none;rounded=0;orthogonalLoop=1;jettySize=auto;html=1;endArrow=none;endFill=0;" edge="1" parent="1" source="YZK5T-PvoIzCCBNRR7O4-5" target="YZK5T-PvoIzCCBNRR7O4-16">
          <mxGeometry relative="1" as="geometry" />
        </mxCell>
        <mxCell id="YZK5T-PvoIzCCBNRR7O4-5" value="帖子" style="rounded=0;whiteSpace=wrap;html=1;" vertex="1" parent="1">
          <mxGeometry x="160" y="450" width="120" height="60" as="geometry" />
        </mxCell>
        <mxCell id="YZK5T-PvoIzCCBNRR7O4-11" style="edgeStyle=none;rounded=0;orthogonalLoop=1;jettySize=auto;html=1;exitX=0.5;exitY=0;exitDx=0;exitDy=0;entryX=0.5;entryY=1;entryDx=0;entryDy=0;endArrow=none;endFill=0;" edge="1" parent="1" source="YZK5T-PvoIzCCBNRR7O4-8" target="YZK5T-PvoIzCCBNRR7O4-10">
          <mxGeometry relative="1" as="geometry" />
        </mxCell>
        <mxCell id="YZK5T-PvoIzCCBNRR7O4-8" value="评论" style="rhombus;whiteSpace=wrap;html=1;" vertex="1" parent="1">
          <mxGeometry x="640" y="640" width="80" height="80" as="geometry" />
        </mxCell>
        <mxCell id="YZK5T-PvoIzCCBNRR7O4-10" value="评论" style="rounded=0;whiteSpace=wrap;html=1;" vertex="1" parent="1">
          <mxGeometry x="510" y="450" width="120" height="60" as="geometry" />
        </mxCell>
        <mxCell id="YZK5T-PvoIzCCBNRR7O4-12" value="1" style="text;html=1;align=center;verticalAlign=middle;resizable=0;points=[];autosize=1;strokeColor=none;fillColor=none;" vertex="1" parent="1">
          <mxGeometry x="230" y="750" width="20" height="20" as="geometry" />
        </mxCell>
        <mxCell id="YZK5T-PvoIzCCBNRR7O4-13" value="N" style="text;html=1;align=center;verticalAlign=middle;resizable=0;points=[];autosize=1;strokeColor=none;fillColor=none;" vertex="1" parent="1">
          <mxGeometry x="160" y="575" width="20" height="20" as="geometry" />
        </mxCell>
        <mxCell id="YZK5T-PvoIzCCBNRR7O4-14" value="1" style="text;html=1;align=center;verticalAlign=middle;resizable=0;points=[];autosize=1;strokeColor=none;fillColor=none;" vertex="1" parent="1">
          <mxGeometry x="540" y="740" width="20" height="20" as="geometry" />
        </mxCell>
        <mxCell id="YZK5T-PvoIzCCBNRR7O4-15" value="M" style="text;html=1;align=center;verticalAlign=middle;resizable=0;points=[];autosize=1;strokeColor=none;fillColor=none;" vertex="1" parent="1">
          <mxGeometry x="620" y="555" width="30" height="20" as="geometry" />
        </mxCell>
        <mxCell id="YZK5T-PvoIzCCBNRR7O4-18" style="edgeStyle=none;rounded=0;orthogonalLoop=1;jettySize=auto;html=1;exitX=1;exitY=0.5;exitDx=0;exitDy=0;entryX=0;entryY=0.5;entryDx=0;entryDy=0;endArrow=none;endFill=0;" edge="1" parent="1" source="YZK5T-PvoIzCCBNRR7O4-16" target="YZK5T-PvoIzCCBNRR7O4-10">
          <mxGeometry relative="1" as="geometry" />
        </mxCell>
        <mxCell id="YZK5T-PvoIzCCBNRR7O4-16" value="隶属" style="rhombus;whiteSpace=wrap;html=1;rounded=0;" vertex="1" parent="1">
          <mxGeometry x="350" y="440" width="80" height="80" as="geometry" />
        </mxCell>
        <mxCell id="YZK5T-PvoIzCCBNRR7O4-19" value="1" style="text;html=1;align=center;verticalAlign=middle;resizable=0;points=[];autosize=1;strokeColor=none;fillColor=none;" vertex="1" parent="1">
          <mxGeometry x="300" y="460" width="20" height="20" as="geometry" />
        </mxCell>
        <mxCell id="YZK5T-PvoIzCCBNRR7O4-20" value="N" style="text;html=1;align=center;verticalAlign=middle;resizable=0;points=[];autosize=1;strokeColor=none;fillColor=none;" vertex="1" parent="1">
          <mxGeometry x="450" y="460" width="20" height="20" as="geometry" />
        </mxCell>
        <mxCell id="YZK5T-PvoIzCCBNRR7O4-21" value="" style="rounded=1;whiteSpace=wrap;html=1;" vertex="1" parent="1">
          <mxGeometry x="100" y="350" width="80" height="40" as="geometry" />
        </mxCell>
        <mxCell id="YZK5T-PvoIzCCBNRR7O4-30" value="标签/话题" style="rounded=0;whiteSpace=wrap;html=1;" vertex="1" parent="1">
          <mxGeometry x="330" y="630" width="120" height="60" as="geometry" />
        </mxCell>
        <mxCell id="YZK5T-PvoIzCCBNRR7O4-32" value="M" style="text;html=1;align=center;verticalAlign=middle;resizable=0;points=[];autosize=1;strokeColor=none;fillColor=none;" vertex="1" parent="1">
          <mxGeometry x="230" y="660" width="30" height="20" as="geometry" />
        </mxCell>
      </root>
    </mxGraphModel>
  </diagram>
</mxfile>
